<svg xmlns="http://www.w3.org/2000/svg" viewBox="0 0 382.5 382.5"><defs><style>.cls-1{stroke:#fff;stroke-miterlimit:10;}</style></defs><title>Facebook</title><g id="Layer_2" data-name="Layer 2"><g id="Facebook"><path d="M317.42,382.5H65.08A65.08,65.08,0,0,1,0,317.42V65.08A65.08,65.08,0,0,1,65.08,0H317.42A65.08,65.08,0,0,1,382.5,65.08V317.42A65.08,65.08,0,0,1,317.42,382.5ZM57.38,27.27A30.11,30.11,0,0,0,27.27,57.38V325.12a30.11,30.11,0,0,0,30.11,30.11H325.12a30.11,30.11,0,0,0,30.11-30.11V57.38a30.11,30.11,0,0,0-30.11-30.11Z"/><path class="cls-1" d="M209.64,147.19v-28.7c0-21.14,9.58-21.14,18.12-21.14h31.72V46H227.76c-51.35,0-68,24.16-68,72.49v28.7H122v51.35H159.8V336h49.84V198.54h42.29L261,147.19Z"/></g></g></svg>