<svg xmlns="http://www.w3.org/2000/svg" viewBox="0 0 382.5 382.5"><title>Instagram</title><g id="Layer_2" data-name="Layer 2"><g id="Instagram"><circle cx="294.99" cy="87.51" r="22.58"/><path d="M192,289.35a98.81,98.81,0,1,1,98.8-98.81A98.93,98.93,0,0,1,192,289.35Zm0-160.91a62.11,62.11,0,1,0,62.1,62.1A62.18,62.18,0,0,0,192,128.44Z"/><path d="M276.23,382.5h-170A106.39,106.39,0,0,1,0,276.23v-170A106.39,106.39,0,0,1,106.27,0h170A106.39,106.39,0,0,1,382.5,106.27v170A106.39,106.39,0,0,1,276.23,382.5Zm-170-345.8A69.65,69.65,0,0,0,36.7,106.27v170a69.65,69.65,0,0,0,69.57,69.57h170a69.65,69.65,0,0,0,69.57-69.57v-170A69.65,69.65,0,0,0,276.23,36.7Z"/></g></g></svg>