<svg xmlns="http://www.w3.org/2000/svg" xmlns:xlink="http://www.w3.org/1999/xlink" viewBox="0 0 450.15 491"><defs><style>.cls-1{fill:url(#radial-gradient);}.cls-2{fill:url(#radial-gradient-2);}.cls-3{fill:url(#linear-gradient);}</style><radialGradient id="radial-gradient" cx="361.53" cy="462.64" r="100.84" gradientTransform="matrix(0.49, 0.91, -2.45, 0.94, 1312.1, -273.87)" gradientUnits="userSpaceOnUse"><stop offset="0.19" stop-color="#00bf17"/><stop offset="0.4" stop-color="#00a50f"/><stop offset="0.71" stop-color="#070"/><stop offset="0.82" stop-color="#006c00"/><stop offset="0.99" stop-color="#005e00"/></radialGradient><radialGradient id="radial-gradient-2" cx="118.55" cy="336.59" r="95.19" gradientTransform="matrix(-1, 0.55, -1.21, -1.56, 577.6, 854.26)" gradientUnits="userSpaceOnUse"><stop offset="0.32" stop-color="#00bf17"/><stop offset="0.4" stop-color="#00bc19"/><stop offset="0.47" stop-color="#00b11e"/><stop offset="0.54" stop-color="#009f27"/><stop offset="0.6" stop-color="#008633"/><stop offset="0.6" stop-color="#008434"/></radialGradient><linearGradient id="linear-gradient" x1="64.17" y1="187.38" x2="312.82" y2="199.46" gradientTransform="translate(17.38 74.36) rotate(-6.85)" gradientUnits="userSpaceOnUse"><stop offset="0" stop-color="#00bf17"/><stop offset="0.24" stop-color="#00bc19"/><stop offset="0.45" stop-color="#00b11e"/><stop offset="0.65" stop-color="#009f27"/><stop offset="0.84" stop-color="#008633"/><stop offset="0.94" stop-color="#00763b"/></linearGradient></defs><title>Logo_white_txt_1</title><g id="Layer_2" data-name="Layer 2"><g id="no_text" data-name="no text"><path class="cls-1" d="M450.15,348.92c-42,32.53-74.13,25.6-129.38,29a51.29,51.29,0,0,0-9.35,1.46c-44.76,11.45-79.58,50.28-83.26,81-.55,4.55-3.89,8.51-8.87,10.35-20.91,7.71-32.52,8-32.52,8s2.17,2.46,1.3,4.93c7.28-1.78,17.7-4.46,26.52-6.73a82.28,82.28,0,0,0,28.59-13.52c20.64-15.27,52.89-31.36,127.37-43.26C340.91,432,315,425.81,244.38,477.88,358.19,520.38,378.73,446.11,450.15,348.92Z"/><path class="cls-2" d="M0,282.66C26,326.82,60.2,328.91,112.82,350,153,373.15,170.36,422.43,160,453.5a11.21,11.21,0,0,0,3.82,12.35c16.3,13.48,27.09,17.21,27.09,17.21s-3.12,1.66-3.38,4.24c-6.06-3.83-14.68-9.45-22-14.21a68.58,68.58,0,0,1-21-21.22c-12.74-20.5-36-45.21-100.86-78.57,22.72,19.89,49.79,21.84,93.44,91.77C11.66,471.07,24.75,395.21,0,282.66Z"/><path class="cls-3" d="M218.62,0C211,130.61,167.33,161.71,127.11,207.32c-18.75,21.28-28.25,47.43-26.17,73.85C106.88,356.7,167.8,430.43,199.3,420c-2.9,42.13-17.36,68.49-17.36,68.49s6.18-.63,9.79,2.56c5.21-18.11,15.1-55.94,18.64-68.3a24.61,24.61,0,0,1,.86-8.94c-1.71-19.77-3.95-40.34.32-68.82,8.54-57.06,35.2-133.52,35.2-133.52S212.69,335,224,417.45C395.49,311.65,329.25,171.53,218.62,0Z"/></g></g></svg>