<svg xmlns="http://www.w3.org/2000/svg" xmlns:xlink="http://www.w3.org/1999/xlink" width="1920" height="1080" viewBox="0 0 1920 1080">
  <defs>
    <linearGradient id="linear-gradient" x1="1" y1="1" x2="0" y2="1" gradientUnits="objectBoundingBox">
      <stop offset="0" stop-color="#fdc830"/>
      <stop offset="1" stop-color="#f37335"/>
    </linearGradient>
    <clipPath id="clip-Web_1920_1">
      <rect width="1920" height="1080"/>
    </clipPath>
  </defs>
  <g id="Web_1920_1" data-name="Web 1920 – 1" clip-path="url(#clip-Web_1920_1)">
    <rect width="1920" height="1080" fill="url(#linear-gradient)"/>
    <g id="Component_1_1" data-name="Component 1 – 1" transform="translate(0 28)">
      <g id="Nav" transform="translate(88 -28)">
        <text id="Start" transform="translate(1002 50)" fill="#fff" font-size="40" font-family="Bahnschrift"><tspan x="0" y="32">Start</tspan></text>
        <text id="Story" transform="translate(1177 50)" fill="#fff" font-size="40" font-family="Bahnschrift"><tspan x="0" y="32">Story</tspan></text>
        <text id="Services" transform="translate(1352 50)" fill="#fff" font-size="40" font-family="Bahnschrift"><tspan x="0" y="32">Services</tspan></text>
        <text id="About" transform="translate(1595 50)" fill="#fff" font-size="40" font-family="Bahnschrift"><tspan x="0" y="32">About</tspan></text>
      </g>
      <g id="logo" transform="translate(0 -28)">
        <g id="Ellipse_1" data-name="Ellipse 1" transform="translate(56 28)" fill="#7e9cff" stroke="#707070" stroke-width="1">
          <circle cx="43" cy="43" r="43" stroke="none"/>
          <circle cx="43" cy="43" r="42.5" fill="none"/>
        </g>
        <g id="Polygon_1" data-name="Polygon 1" transform="translate(63 28)" fill="#3361f5">
          <path d="M 71.15773773193359 65.5 L 0.8422792553901672 65.5 L 36.00000381469727 1.044171571731567 L 71.15773773193359 65.5 Z" stroke="none"/>
          <path d="M 36.00000381469727 2.088333129882813 L 1.684539794921875 65 L 70.31546020507813 65 L 36.00000381469727 2.088333129882813 M 36.00000381469727 0 L 72 66 L -7.62939453125e-06 66 L 36.00000381469727 0 Z" stroke="none" fill="#707070"/>
        </g>
      </g>
      <g id="undraw_Wishlist_re_m7tv" transform="translate(1158.819 356)">
        <path id="Path_1" data-name="Path 1" d="M510.173,711.205h437a17.019,17.019,0,0,0,17-17v-489a17.019,17.019,0,0,0-17-17h-437a17.019,17.019,0,0,0-17,17v489a17.019,17.019,0,0,0,17,17Zm437-521a15.017,15.017,0,0,1,15,15v489a15.017,15.017,0,0,1-15,15h-437a15.017,15.017,0,0,1-15-15v-489a15.017,15.017,0,0,1,15-15Z" transform="translate(-493.173 -188.205)" fill="#3f3d56"/>
        <rect id="Rectangle_1" data-name="Rectangle 1" width="469" height="2" transform="translate(1 41.59)" fill="#3f3d56"/>
        <circle id="Ellipse_2" data-name="Ellipse 2" cx="8" cy="8" r="8" transform="translate(424.108 14)" fill="#6c63ff"/>
        <circle id="Ellipse_3" data-name="Ellipse 3" cx="8" cy="8" r="8" transform="translate(399.956 14)" fill="#6c63ff"/>
        <circle id="Ellipse_4" data-name="Ellipse 4" cx="8" cy="8" r="8" transform="translate(375.804 14)" fill="#6c63ff"/>
        <path id="Path_2" data-name="Path 2" d="M572.673,303.2h312a13,13,0,0,0,0-26h-312a13,13,0,1,0,0,26Zm312-24a11,11,0,0,1,0,22h-312a11,11,0,1,1,0-22Z" transform="translate(-493.173 -188.205)" fill="#3f3d56"/>
        <path id="Path_3" data-name="Path 3" d="M665.528,405.8h142a8,8,0,0,0,0-16h-142a8,8,0,0,0,0,16Z" transform="translate(-515.181 -188.205)" fill="#ccc"/>
        <path id="Path_4" data-name="Path 4" d="M665.528,432.8h224a8,8,0,0,0,0-16h-224a8,8,0,0,0,0,16Z" transform="translate(-590.883 -188.205)" fill="#ccc"/>
        <path id="Path_5" data-name="Path 5" d="M569.319,434.3h43a9.511,9.511,0,0,0,9.5-9.5v-27a9.511,9.511,0,0,0-9.5-9.5h-43a9.511,9.511,0,0,0-9.5,9.5v27a9.511,9.511,0,0,0,9.5,9.5Zm43-44a7.508,7.508,0,0,1,7.5,7.5v27a7.508,7.508,0,0,1-7.5,7.5h-43a7.508,7.508,0,0,1-7.5-7.5v-27a7.508,7.508,0,0,1,7.5-7.5Z" transform="translate(-229.88 -188.205)" fill="#ccc"/>
        <path id="Path_6" data-name="Path 6" d="M665.528,500.8h142a8,8,0,0,0,0-16h-142a8,8,0,0,0,0,16Z" transform="translate(-515.181 -188.205)" fill="#ccc"/>
        <path id="Path_7" data-name="Path 7" d="M665.528,527.795h224a8,8,0,1,0,0-16h-224a8,8,0,0,0,0,16Z" transform="translate(-590.883 -188.205)" fill="#ccc"/>
        <path id="Path_8" data-name="Path 8" d="M569.319,529.295h43a9.511,9.511,0,0,0,9.5-9.5v-27a9.511,9.511,0,0,0-9.5-9.5h-43a9.511,9.511,0,0,0-9.5,9.5v27A9.511,9.511,0,0,0,569.319,529.295Zm43-44a7.508,7.508,0,0,1,7.5,7.5v27a7.508,7.508,0,0,1-7.5,7.5h-43a7.508,7.508,0,0,1-7.5-7.5v-27a7.508,7.508,0,0,1,7.5-7.5Z" transform="translate(-229.88 -188.205)" fill="#ccc"/>
        <path id="Path_9" data-name="Path 9" d="M665.528,595.795h142a8,8,0,0,0,0-16h-142a8,8,0,0,0,0,16Z" transform="translate(-515.181 -188.205)" fill="#f2f2f2"/>
        <path id="Path_10" data-name="Path 10" d="M665.528,622.795h224a8,8,0,0,0,0-16h-224a8,8,0,0,0,0,16Z" transform="translate(-590.883 -188.205)" fill="#f2f2f2"/>
        <path id="Path_11" data-name="Path 11" d="M569.319,624.295h43a9.511,9.511,0,0,0,9.5-9.5v-27a9.511,9.511,0,0,0-9.5-9.5h-43a9.511,9.511,0,0,0-9.5,9.5v27a9.511,9.511,0,0,0,9.5,9.5Z" transform="translate(-229.88 -188.205)" fill="#f2f2f2"/>
        <path id="Path_12" data-name="Path 12" d="M590.819,426.034l2.315-2.089c8.223-7.549,13.651-12.449,13.651-18.553A8.683,8.683,0,0,0,598,396.557a9.445,9.445,0,0,0-7.185,3.374,9.445,9.445,0,0,0-7.185-3.374,8.683,8.683,0,0,0-8.782,8.835c0,6.1,5.429,11,13.651,18.553Z" transform="translate(-229.866 -188.205)" fill="#6c63ff"/>
        <path id="Path_13" data-name="Path 13" d="M590.819,521.034l2.315-2.089c8.223-7.549,13.651-12.449,13.651-18.553A8.683,8.683,0,0,0,598,491.557a9.445,9.445,0,0,0-7.185,3.373,9.445,9.445,0,0,0-7.185-3.373,8.683,8.683,0,0,0-8.782,8.835c0,6.1,5.429,11,13.651,18.553Z" transform="translate(-229.866 -188.205)" fill="#6c63ff"/>
        <path id="Path_14" data-name="Path 14" d="M366.157,505.052h43a9.511,9.511,0,0,0,9.5-9.5v-27a9.511,9.511,0,0,0-9.5-9.5h-43a9.511,9.511,0,0,0-9.5,9.5v27a9.511,9.511,0,0,0,9.5,9.5Zm43-44a7.508,7.508,0,0,1,7.5,7.5v27a7.508,7.508,0,0,1-7.5,7.5h-43a7.508,7.508,0,0,1-7.5-7.5v-27a7.508,7.508,0,0,1,7.5-7.5Z" transform="translate(169.076 -188.205)" fill="#3f3d56"/>
        <path id="Path_15" data-name="Path 15" d="M387.657,496.791l2.315-2.089c8.223-7.549,13.651-12.449,13.651-18.553a8.683,8.683,0,0,0-8.782-8.835,9.445,9.445,0,0,0-7.185,3.374,9.445,9.445,0,0,0-7.185-3.373,8.683,8.683,0,0,0-8.782,8.835c0,6.1,5.429,11,13.651,18.553Z" transform="translate(169.409 -188.205)" fill="#6c63ff"/>
        <path id="Path_16" data-name="Path 16" d="M127.882,512.106,116.76,509.46l4.912-44.158,16.415,3.9Z" transform="translate(449.335)" fill="#ffb8b8"/>
        <path id="Path_17" data-name="Path 17" d="M38.332,0,6.251,16.178,0,3.783,19.686-6.144A13.882,13.882,0,0,1,38.332,0h0Z" transform="matrix(0.973, 0.231, -0.231, 0.973, 510.5, 505.818)" fill="#2f2e41"/>
        <path id="Path_18" data-name="Path 18" d="M351.547,671.877,375.7,589.091,345.517,581.6,327.809,669.28a4.5,4.5,0,0,0,4.277,5.389l15.007.446.135,0a4.5,4.5,0,0,0,4.319-3.24Z" transform="translate(236.587 -188.205)" fill="#2f2e41"/>
        <path id="Path_19" data-name="Path 19" d="M74.955,512.384H63.523l-5.437-44.1,16.873,0Z" transform="translate(571.137)" fill="#ffb8b8"/>
        <path id="Path_20" data-name="Path 20" d="M35.932,13.888,0,13.895,0,.013l22.048,0A13.882,13.882,0,0,1,35.932,13.888h0Z" transform="translate(612.61 509.105) rotate(0.005)" fill="#2f2e41"/>
        <path id="Path_21" data-name="Path 21" d="M301.873,683.456a4.415,4.415,0,0,0,1.344-3.129l10.415-82.585a4.506,4.506,0,0,0-4.467-4.523l-23.248-.168h-.033a4.512,4.512,0,0,0-4.5,4.431l-1.236,81.354a4.5,4.5,0,0,0,4.4,4.566l14.113,1.341h.065a4.467,4.467,0,0,0,3.15-1.288Z" transform="translate(346.226 -188.205)" fill="#2f2e41"/>
        <circle id="Ellipse_5" data-name="Ellipse 5" cx="24.561" cy="24.561" r="24.561" transform="translate(618.556 172.787)" fill="#ffb8b8"/>
        <path id="Path_22" data-name="Path 22" d="M349.946,593.427c15.98-12.486,15.811-27.053,10.358-46.51-1.536-5.481-3.194-11.036-4.949-16.917-8.155-27.325-17.4-58.3-13.889-83.868l-.5-.068.5.068c.961-7-1.489-14.371-6.721-20.212s-12.276-9.079-19.355-8.9-13.94,3.8-18.854,9.913c-4.891,6.082-7.225,27.466-7.917,30.531-3.177,14.067-5.094,22.558-6.469,36.1-1.626,16.013-21.1,63.891-27.309,71.92a19,19,0,0,0-3.677,15.133,17.805,17.805,0,0,0,8.455,12.135,101.646,101.646,0,0,0,32.706,12.871,80.17,80.17,0,0,0,15.227,1.465C323.409,607.094,338.561,602.323,349.946,593.427Z" transform="translate(325.528 -188.205)" fill="#6c63ff"/>
        <path id="Path_23" data-name="Path 23" d="M325.906,500.895a9.377,9.377,0,0,1,14.048-3.063l18.611-10.62,9.212,9.736-26.493,14.628a9.428,9.428,0,0,1-15.379-10.682Z" transform="translate(247.431 -188.205)" fill="#ffb8b8"/>
        <path id="Path_24" data-name="Path 24" d="M301.191,508.093l33.357-10.479a22.962,22.962,0,0,0,16.009-20.828l1.435-32.411a13.571,13.571,0,1,0-27.123-.183l.917,29.82-35.5,14.479a4.5,4.5,0,0,0-1.978,6.76l7.857,11.143a4.488,4.488,0,0,0,5.027,1.7Z" transform="translate(300.517 -188.205)" fill="#2f2e41"/>
        <path id="Path_25" data-name="Path 25" d="M324.788,416.116c-1.122-6.731-1.081-13.707-1.041-20.455.011-1.832.022-3.663.01-5.49-.052-8.494-.579-17.5-4.052-25.784-3.779-9.02-10.778-15.533-18.721-17.422-8.956-2.133-18.673,2.582-21.6,10.345a15.007,15.007,0,1,0-9.149,27.969l.375.033,2.927-7.605c.017.133.032.268.049.4.186,1.577.379,3.208,1.681,4.149h0c1.625,1.176,3.65,5.045,3.058,8.966a33.8,33.8,0,0,1-1.642,5.881,32.279,32.279,0,0,0-1.742,6.479,11.065,11.065,0,0,0,2.072,8.014,6.186,6.186,0,0,0,4.238,2.432l32.988,3.411,1.475-11.019,9.383,11.557Z" transform="translate(357.912 -188.205)" fill="#2f2e41"/>
        <path id="Path_26" data-name="Path 26" d="M236.827,711.795h192a1,1,0,0,0,0-2h-192a1,1,0,1,0,0,2Z" transform="translate(274.354 -188.205)" fill="#ccc"/>
      </g>
      <text id="Choose_the_best_application_for_your_needs_" data-name="Choose the best application for your needs " transform="translate(230 446)" fill="#fff" font-size="45" font-family="Bahnschrift" font-weight="700"><tspan x="12.744" y="36">Choose the best application </tspan><tspan x="144.514" y="99">for your needs </tspan></text>
      <text id="Download_Free_App_Now" data-name="Download Free App Now" transform="translate(520 311)" fill="#fff" font-size="80" font-family="Bahnschrift" font-weight="700"><tspan x="-440.313" y="0">Download Free App Now</tspan></text>
      <g id="Rectangle_2" data-name="Rectangle 2" transform="translate(1664 11)" fill="none" stroke="#fff" stroke-width="3">
        <rect width="150" height="60" rx="5" stroke="none"/>
        <rect x="1.5" y="1.5" width="147" height="57" rx="3.5" fill="none"/>
      </g>
      <rect id="Rectangle_3" data-name="Rectangle 3" width="1920" height="110" transform="translate(0 942)" fill="#474747"/>
      <g id="button" transform="translate(-573 -118)">
        <rect id="Rectangle_4" data-name="Rectangle 4" width="267" height="82" rx="5" transform="translate(960 781)" fill="#6c63ff"/>
        <text id="Download" transform="translate(994 800)" fill="#fff" font-size="45" font-family="Bahnschrift" font-weight="700"><tspan x="0" y="36">Download</tspan></text>
      </g>
      <text id="Mobile_app._All_rights_reserved_2020" data-name="Mobile app. All rights reserved 2020" transform="translate(1542 986)" fill="#fff" font-size="20" font-family="ArialRoundedMTBold, Arial Rounded MT"><tspan x="0" y="19">Mobile app. All rights reserved 2020</tspan></text>
      <text id="Privacy_Policy" data-name="Privacy Policy" transform="translate(62 986)" fill="#fff" font-size="20" font-family="ArialRoundedMTBold, Arial Rounded MT"><tspan x="0" y="19">Privacy Policy</tspan></text>
      <text id="Terms_Conditions" data-name="Terms &amp; Conditions" transform="translate(264 986)" fill="#fff" font-size="20" font-family="ArialRoundedMTBold, Arial Rounded MT"><tspan x="0" y="19">Terms &amp; Conditions</tspan></text>
      <text id="Ecological_Policy" data-name="Ecological Policy" transform="translate(535 986)" fill="#fff" font-size="20" font-family="ArialRoundedMTBold, Arial Rounded MT"><tspan x="0" y="19">Ecological Policy</tspan></text>
    </g>
  </g>
</svg>
